<svg xmlns="http://www.w3.org/2000/svg" width="100%" height="100%" viewBox="0 0 356 129.956">
  <defs>
    <style>
      .cls-1 {
        fill: #c4d1e8;
      }

      .cls-2 {
        fill: #99acc6;
      }

      .cls-3 {
        fill: #fff;
      }
    </style>
  </defs>
  <g id="Group_98" data-name="Group 98" transform="translate(-1078 -675.42)">
    <g id="Group_97" data-name="Group 97">
      <path id="Path_30" data-name="Path 30" class="cls-1" d="M1394.5,505H1147.141L1097,553.831h356Z" transform="translate(-19 224.766)"/>
      <rect id="Rectangle_52" data-name="Rectangle 52" class="cls-2" width="356" height="26.779" transform="translate(1078 778.597)"/>
    </g>
    <g id="Group_96" data-name="Group 96">
      <rect id="Rectangle_53" data-name="Rectangle 53" class="cls-3" width="122.771" height="81.371" rx="14.75" transform="translate(1199.34 675.42)"/>
      <g id="Group_3" data-name="Group 3" transform="translate(-19 224.766)">
        <path id="Path_35" data-name="Path 35" class="cls-1" d="M1291.762,490.779c-4.743,3.089-4.488,9.326.869,11.954-.427.914-.819,1.85-1.292,2.744a14.753,14.753,0,0,1-3.27,4.126,3.928,3.928,0,0,1-4.291.833c-.347-.132-.708-.233-1.045-.387a6.4,6.4,0,0,0-5.252.061,9.716,9.716,0,0,1-1.841.59,4.029,4.029,0,0,1-3.452-1.124,13.833,13.833,0,0,1-2.882-3.8,17.858,17.858,0,0,1-2.475-9.556,8.506,8.506,0,0,1,2.932-6.6,7.449,7.449,0,0,1,8.028-1.181,5.192,5.192,0,0,0,4.357.048,8.522,8.522,0,0,1,6.3-.189A7.047,7.047,0,0,1,1291.762,490.779Z"/>
        <path id="Path_36" data-name="Path 36" class="cls-1" d="M1278.984,484.2c-1.211-5.4,4.443-12.056,10.392-12.281C1290.657,478.158,1284.635,484.537,1278.984,484.2Z"/>
      </g>
    </g>
  </g>
</svg>
