<svg xmlns="http://www.w3.org/2000/svg" width="100%" height="100%" viewBox="0 0 46.053 10.698">
  <g id="Group_13" data-name="Group 13" transform="translate(0)">
    <ellipse id="Ellipse_3" data-name="Ellipse 3" cx="1.929" cy="1.557" rx="1.929" ry="1.557" transform="translate(3.13)"/>
    <path id="Path_94" data-name="Path 94" d="M797.123,766.908H795.3a7.206,7.206,0,0,1-3.31-1.849v-1.723a2.177,2.177,0,0,0,1.91-1.966,2.613,2.613,0,0,0-5.1,0,2.177,2.177,0,0,0,1.91,1.966v1.76a5.343,5.343,0,0,1-3.3,1.811h-1.837a.637.637,0,0,0-.076,1.27,8.141,8.141,0,0,0,1.99,0H795.2a5.708,5.708,0,0,0,.99.086,5.612,5.612,0,0,0,1.046-.1.637.637,0,0,0-.117-1.263Zm-6.491,0a7.456,7.456,0,0,0,.764-.67q.433.368.868.67Z" transform="translate(-768.27 -757.572)"/>
    <g id="Group_11" data-name="Group 11" transform="translate(0 2.365)">
      <path id="Path_95" data-name="Path 95" d="M769.782,761.551a.643.643,0,0,1-.141-.016l-1.41-.321a.637.637,0,0,1-.5-.621.647.647,0,0,1,.016-.141.637.637,0,0,1,.764-.481l1.409.32a.638.638,0,0,1,.5.621.65.65,0,0,1-.016.142A.639.639,0,0,1,769.782,761.551Z" transform="translate(-767.735 -759.955)"/>
    </g>
    <ellipse id="Ellipse_4" data-name="Ellipse 4" cx="1.929" cy="1.557" rx="1.929" ry="1.557" transform="translate(39.066)"/>
    <g id="Group_12" data-name="Group 12" transform="translate(43.368 2.364)">
      <path id="Path_96" data-name="Path 96" d="M813.131,761.551a.638.638,0,0,1-.621-.5.65.65,0,0,1-.016-.142.639.639,0,0,1,.5-.621l1.41-.32a.637.637,0,0,1,.764.481.647.647,0,0,1,.016.141.637.637,0,0,1-.5.621l-1.41.321A.646.646,0,0,1,813.131,761.551Z" transform="translate(-812.494 -759.955)"/>
    </g>
  </g>
</svg>
